<?xml version="1.0" encoding="utf-8"?>
<!-- Generator: Adobe Illustrator 25.0.0, SVG Export Plug-In . SVG Version: 6.00 Build 0)  -->
<svg version="1.1" id="Layer_1" xmlns="http://www.w3.org/2000/svg" xmlns:xlink="http://www.w3.org/1999/xlink" x="0px" y="0px"
	 viewBox="0 0 877 214" style="enable-background:new 0 0 877 214;" xml:space="preserve">
<g>
	<path d="M133.4,66.9c0,0.7-0.7,1.1-2,1.1c-4.9,0-12.3-0.4-22.2-1.3c-9.9-0.8-17.4-1.3-22.3-1.3c-6.2,0-9.9,0.2-10.9,0.7
		c-2.4,1.1-3.6,4.2-3.6,9.4c0,6.2,1.6,9.7,4.7,10.5c1.3,0.3,3.3,0.5,6,0.5c4.5,0,11.2-0.2,20.2-0.7c9-0.5,15.7-0.7,20.2-0.7
		c2.1,0,3.2,5.7,3.2,17.2c0,10-0.4,15.8-1.1,17.4c-0.5,1.2-1.3,1.8-2.6,1.8c0.8,0-1.2-0.2-6.2-0.7c-7-0.6-17.5-1-31.6-1
		c-4.6,0-7.1,0-7.7,0.1c-3.3,0.5-5,1.9-5,4.2c0,9.2,0.4,19.9,1.2,31.9c0.6,10.9,1,15.7,1,14.6c0,1.7-2.1,2.7-6.2,2.9
		c1.1-0.1-1.8-0.1-8.7-0.1c-12.2,0-20-0.4-23.5-1.3c-1.9-0.5-2.8-1.5-2.8-3c0-7.2,0.2-18.1,0.7-32.6c0.5-14.5,0.7-25.3,0.7-32.6
		c0-8.6-0.4-19.4-1.2-32.4c-1.2-20.1-1.8-30.9-1.9-32.4l-0.1-1.2c-0.1-1.6,0.9-2.4,2.9-2.4c4.8,0,12.1,0.1,21.8,0.3
		c9.7,0.2,17,0.3,21.9,0.3c5.2,0,13-0.4,23.5-1.2s18.3-1.2,23.5-1.2c3.3,0,5.1,1.3,5.5,4c0,2.8,0.1,7,0.4,12.6
		c0.1,1.4,0.6,4.2,1.3,8.3C133,62.2,133.4,65,133.4,66.9z"/>
	<path d="M280.5,103.7c0,20.3-6.5,37.3-19.4,51.1c-13.2,13.9-29.9,20.9-50.2,20.9c-20.1,0-36.8-7-50.1-21.1
		c-13-13.7-19.5-30.7-19.5-50.9c0-20.2,6.5-37.3,19.5-51.1c13.3-14.1,30-21.2,50.1-21.2c20,0,36.7,7.1,50,21.2
		C274,66.6,280.5,83.6,280.5,103.7z M243.5,103.5c0-9.8-3-18.1-8.9-24.9c-6.2-7.2-14.1-10.7-23.7-10.7c-9.2,0-17,3.7-23.3,11.1
		c-6.2,7.2-9.3,15.4-9.3,24.7c0,10,2.9,18.3,8.7,24.9c6.1,7,14.1,10.4,23.9,10.4c9.2,0,17-3.7,23.4-11
		C240.5,121,243.5,112.9,243.5,103.5z"/>
	<path d="M430.7,103.7c0,20.3-6.5,37.3-19.4,51.1c-13.2,13.9-29.9,20.9-50.2,20.9c-20.1,0-36.8-7-50.1-21.1
		c-13-13.7-19.5-30.7-19.5-50.9c0-20.2,6.5-37.3,19.5-51.1c13.3-14.1,30-21.2,50.1-21.2c20,0,36.7,7.1,50,21.2
		C424.2,66.6,430.7,83.6,430.7,103.7z M393.7,103.5c0-9.8-3-18.1-8.9-24.9c-6.2-7.2-14.1-10.7-23.7-10.7c-9.2,0-17,3.7-23.3,11.1
		c-6.2,7.2-9.3,15.4-9.3,24.7c0,10,2.9,18.3,8.7,24.9c6.1,7,14.1,10.4,23.9,10.4c9.2,0,17-3.7,23.4-11
		C390.6,121,393.7,112.9,393.7,103.5z"/>
	<path d="M572.7,102.9c0,19.1-6.2,35.7-18.5,49.8c-10.9,12.6-26.1,19.2-45.8,19.8c-3.8,0.1-14.2,0.2-31.2,0.2c-3.2,0-8-0.1-14.4-0.3
		c-6.4-0.2-11.2-0.3-14.4-0.3c-1.9,0-2.8-0.7-2.8-2.2c0-7.2,0.3-17.9,0.8-32.3c0.6-14.4,0.8-25.1,0.8-32.3c0-7.5-0.3-18.7-0.8-33.6
		c-0.6-14.9-0.8-26.1-0.8-33.5c0-1.4,0.9-2.2,2.8-2.4c4.6-0.5,12.2-0.8,22.8-0.8c20.1,0,33,0.3,39,0.9c15.4,1.6,27.5,5.5,36.2,11.7
		c8.2,5.9,14.7,14.1,19.4,24.6C570.4,82.1,572.7,92.3,572.7,102.9z M535.3,102.9c0-11-3.3-20-9.9-27c-6.6-7.2-15.4-10.8-26.4-10.8
		c-10,0-15,1.3-15,4c0,3.8-0.1,9.6-0.2,17.3c-0.1,7.7-0.2,13.5-0.2,17.3c0,3.8,0.1,9.5,0.2,17c0.1,7.6,0.2,13.3,0.2,17.1
		c0,2.8,5.2,4.2,15.6,4.2c11.3,0,20.1-3.7,26.6-11.2C532.3,123.8,535.3,114.4,535.3,102.9z"/>
</g>
<g>
	<path d="M660,67.2c0,10.2-3.2,18.7-9.7,25.5c-6.6,7-15,10.4-25.1,10.4c-10.1,0-18.4-3.5-25-10.5c-6.5-6.9-9.8-15.3-9.8-25.4
		c0-10.1,3.3-18.6,9.8-25.5c6.6-7.1,15-10.6,25-10.6c10,0,18.3,3.5,25,10.6C656.7,48.6,660,57.1,660,67.2z M641.5,67.1
		c0-4.9-1.5-9-4.4-12.5c-3.1-3.6-7-5.4-11.9-5.4c-4.6,0-8.5,1.9-11.7,5.6c-3.1,3.6-4.6,7.7-4.6,12.4c0,5,1.4,9.1,4.3,12.5
		c3.1,3.5,7,5.2,12,5.2c4.6,0,8.5-1.8,11.7-5.5C640,75.8,641.5,71.7,641.5,67.1z"/>
	<path d="M699.3,70.9c0,1.3-0.7,1.9-2.1,1.9c-0.6,0-1.5,0-2.7-0.1c-1.2-0.1-2.1-0.1-2.7-0.1c-2.7,0-4.5,0.4-5.5,1.3
		c-1,0.8-1.5,2.6-1.5,5.1c0,1.4,0,3.5,0.1,6.4c0,2.8,0.1,5,0.1,6.4c0,0.9,0.1,2.4,0.2,4.2c0.1,1.9,0.2,3.3,0.2,4.2
		c0,0.8-0.5,1.2-1.6,1.3c-1.6,0.1-4,0.2-7.2,0.2c-3.1,0-5.6-0.1-7.4-0.3c-1.1-0.1-1.6-0.7-1.6-1.6c0-2.6,0-6.5,0-11.7
		c0-5.2,0-9.1,0-11.7c0-7.6-0.7-13.9-2.1-18.9c-0.1-0.3-0.1-0.5-0.1-0.7c0-0.5,0.2-0.8,0.7-1c1.8-0.2,4.4-0.6,7.9-1.1
		c5.1-1,7.8-1.5,8-1.5c0.6,0,1,1,1.1,3.1c0.2,2.1,0.5,3.1,0.9,3.1c-0.5,0,0.9-0.9,4-2.6s6.1-2.6,9-2.6c1.8,0,2.7,0.4,2.7,1.2
		c0,0.9-0.1,2.3-0.3,4c-0.2,1.9-0.3,3.2-0.3,4c0,0.9,0,2.2,0,3.8C699.3,69.1,699.3,70.3,699.3,70.9z"/>
	<path d="M756.8,32.1c0-0.7-0.1,0.4-0.4,3.2c-0.4,3.6-0.6,8.2-0.8,13.9c-0.3,6.4-0.4,13.6-0.4,21.8c0,13.4,0.4,23,1.1,28.7
		c0.1,0.6,0.1,1,0.1,1.2c0,0.4-0.2,0.6-0.7,0.6c-1.2,0.2-5.5,0.2-12.9,0.2c-1.8,0-2.8-0.3-3-1c-0.1-1.2-0.1-2.5-0.2-3.7
		c0-0.3-0.2-0.5-0.4-0.8c-0.2,0.1-0.4,0.3-0.7,0.6c-3.5,3.5-7.9,5.2-13.2,5.2c-6.9,0-12.4-2.4-16.5-7.2c-3.9-4.6-5.9-10.4-5.9-17.4
		c0-7.1,1.9-12.9,5.8-17.5c4.1-4.9,9.6-7.3,16.6-7.3c4.9,0,8.7,1.6,11.5,4.7c0.5,0.5,0.8,0.8,1,0.8c0.3,0,0.4-0.4,0.4-1.3
		c0-2.5-0.1-6.2-0.2-11.2c-0.1-5-0.2-8.7-0.2-11.2c0-0.9,0.3-1.5,0.8-1.6c2.1-0.1,4.9-0.3,8.6-0.6c6.5-0.8,9.4-1.2,8.6-1.2
		C756.4,30.9,756.8,31.3,756.8,32.1z M738.4,77c0-2.6-0.9-4.8-2.7-6.8c-1.8-1.9-4-2.9-6.5-2.9c-2.7,0-4.8,1-6.4,2.9
		c-1.6,1.9-2.4,4.3-2.4,7c0,2.6,0.8,4.9,2.4,6.7c1.6,2,3.7,2.9,6.3,2.9c2.6,0,4.8-1,6.5-2.9S738.4,79.6,738.4,77z"/>
	<path d="M808.7,74.9c0,3.3-1.1,5.2-3.2,5.6c-0.4,0.1-3.7,0.4-10.1,1.1c-3.8,0.4-9.6,0.9-17.2,1.5c0.5,2.1,1.8,3.7,4.2,4.8
		c1.9,0.9,4,1.4,6.4,1.4c2.9,0,5.8-0.8,8.7-2.3c1.2-0.8,2.5-1.6,3.7-2.3c0.7,0.3,1.8,2,3.4,5c1.6,3,2.4,4.9,2.4,5.7
		c0,0.2-0.2,0.6-0.7,1.1c-4,4.3-10.1,6.4-18.5,6.4c-7.7,0-14-2.3-18.8-6.8c-4.9-4.6-7.3-10.7-7.3-18.4c0-7.5,2.2-13.6,6.5-18.4
		c4.5-4.9,10.4-7.4,17.9-7.4c6.2,0,11.6,2.3,15.9,6.8C806.5,63.1,808.7,68.6,808.7,74.9z M791.6,71.9c0-2-0.7-3.8-2.1-5.3
		c-1.4-1.5-3.1-2.3-5.1-2.3c-2.1,0-3.7,0.9-5.1,2.6c-1.2,1.6-1.9,3.5-1.9,5.6c0,0.9,0.5,1.3,1.4,1.3c2.4,0,6.2-0.4,11.2-1.1
		C791.1,72.5,791.6,72.2,791.6,71.9z"/>
	<path d="M846.5,70.9c0,1.3-0.7,1.9-2.1,1.9c-0.6,0-1.5,0-2.7-0.1c-1.2-0.1-2.1-0.1-2.7-0.1c-2.7,0-4.5,0.4-5.5,1.3
		c-1,0.8-1.5,2.6-1.5,5.1c0,1.4,0,3.5,0.1,6.4c0,2.8,0.1,5,0.1,6.4c0,0.9,0.1,2.4,0.2,4.2c0.1,1.9,0.2,3.3,0.2,4.2
		c0,0.8-0.5,1.2-1.6,1.3c-1.6,0.1-4,0.2-7.2,0.2c-3.1,0-5.6-0.1-7.4-0.3c-1.1-0.1-1.6-0.7-1.6-1.6c0-2.6,0-6.5,0-11.7
		c0-5.2,0-9.1,0-11.7c0-7.6-0.7-13.9-2.1-18.9c-0.1-0.3-0.1-0.5-0.1-0.7c0-0.5,0.2-0.8,0.7-1c1.8-0.2,4.4-0.6,7.9-1.1
		c5.1-1,7.8-1.5,8-1.5c0.6,0,1,1,1.1,3.1c0.2,2.1,0.5,3.1,0.9,3.1c-0.5,0,0.9-0.9,4-2.6s6.1-2.6,9-2.6c1.8,0,2.7,0.4,2.7,1.2
		c0,0.9-0.1,2.3-0.3,4c-0.2,1.9-0.3,3.2-0.3,4c0,0.9,0,2.2,0,3.8C846.4,69.1,846.5,70.3,846.5,70.9z"/>
	<path d="M642.8,170.4c0,0.5-0.3,0.8-1,1c-0.8,0.2-3.2,0.3-7.3,0.3c-3.7,0-6.1-0.1-7.2-0.3c-0.9-0.2-1.4-0.8-1.7-1.8
		c-0.9-3.8-1.6-5.8-2.1-6c-0.4-0.2-3.9-0.3-10.5-0.3c-4.4,0-6.8,0.1-7.1,0.4c-0.4,0.4-0.9,1.8-1.5,4.2c-0.5,2.2-1.1,3.3-1.8,3.5
		c-0.9,0.2-3.9,0.3-8.9,0.3c-4,0-6-0.4-6-1.1c0-0.7,2.9-9,8.8-25c6.4-17.3,9.8-26.8,10.4-28.5c0.3-1,0.7-1.5,1.1-1.5
		c0.7,0,1.8,0.1,3.3,0.2c1.5,0.1,2.6,0.2,3.3,0.2c0.7,0,1.7,0,3.1-0.1c1.4-0.1,2.4-0.1,3.1-0.1c0.5,0,1,0.4,1.4,1.3
		c1.3,2.7,5,12.1,11.2,28.1C639.7,161.3,642.8,169.7,642.8,170.4z M615.1,134.8c-0.5,1.1-1.5,3.6-2.8,7.5c-1.4,4.1-2.1,6.4-2.1,7.1
		c0,0.5,0.8,0.7,2.3,0.8c0.8,0.1,2.1,0.1,4,0.1c1.7,0,2.7-0.2,2.9-0.6c0.1-0.1,0.1-0.3,0.1-0.5c0-0.9-0.6-3.2-1.8-7.1
		C616.5,138.2,615.6,135.8,615.1,134.8z"/>
	<path d="M689.6,152.6c0,5.6-1.6,10.2-4.9,13.9c-3.4,3.8-7.8,5.7-13.3,5.7c-2,0-4.2-0.5-6.4-1.5c-2.3-1-3.3-1.5-3.1-1.5
		c-0.3,0-0.5,0.4-0.5,1.2c0,1.3,0.1,3.3,0.2,6c0.1,2.7,0.2,4.7,0.2,6c0,0.8-0.4,1.2-1.3,1.2l-8,0c-1.8,0-3-0.1-3.5-0.2
		c-0.8-0.2-1.2-0.7-1.2-1.4l0.1-30.1c0-6.1-0.5-11.2-1.4-15.4c-0.1-0.3-0.1-0.5-0.1-0.7c0-0.4,0.2-0.7,0.5-0.8c1-0.4,3-0.8,5.8-1.2
		c2.8-0.4,4.8-0.7,6.1-0.7c1,0,1.6,0.7,1.7,2c0.1,1.3,0.3,2,0.5,2c-0.3,0,0.9-0.7,3.3-2.1c2.5-1.4,4.7-2.1,6.8-2.1
		c5.7,0,10.2,1.9,13.6,5.6C687.9,142.1,689.6,146.8,689.6,152.6z M675.1,152.5c0-2.1-0.6-3.9-1.9-5.5c-1.4-1.6-3.1-2.5-5.1-2.5
		c-2.1,0-3.8,0.8-5,2.5c-1.1,1.5-1.6,3.3-1.6,5.5c0,2.2,0.6,4,1.7,5.5c1.2,1.6,2.9,2.4,5.1,2.4C672.8,160.4,675.1,157.8,675.1,152.5
		z"/>
	<path d="M737.8,152.6c0,5.6-1.6,10.2-4.9,13.9c-3.4,3.8-7.8,5.7-13.3,5.7c-2,0-4.2-0.5-6.4-1.5c-2.3-1-3.3-1.5-3.1-1.5
		c-0.3,0-0.5,0.4-0.5,1.2c0,1.3,0.1,3.3,0.2,6c0.1,2.7,0.2,4.7,0.2,6c0,0.8-0.4,1.2-1.3,1.2l-8,0c-1.8,0-3-0.1-3.5-0.2
		c-0.8-0.2-1.2-0.7-1.2-1.4l0.1-30.1c0-6.1-0.5-11.2-1.4-15.4c-0.1-0.3-0.1-0.5-0.1-0.7c0-0.4,0.2-0.7,0.5-0.8c1-0.4,3-0.8,5.8-1.2
		c2.8-0.4,4.8-0.7,6.1-0.7c1,0,1.6,0.7,1.7,2c0.1,1.3,0.3,2,0.5,2c-0.3,0,0.9-0.7,3.3-2.1c2.5-1.4,4.7-2.1,6.8-2.1
		c5.7,0,10.2,1.9,13.6,5.6C736.1,142.1,737.8,146.8,737.8,152.6z M723.3,152.5c0-2.1-0.6-3.9-1.9-5.5c-1.4-1.6-3.1-2.5-5.1-2.5
		c-2.1,0-3.8,0.8-5,2.5c-1.1,1.5-1.6,3.3-1.6,5.5c0,2.2,0.6,4,1.7,5.5c1.2,1.6,2.9,2.4,5.1,2.4C721,160.4,723.3,157.8,723.3,152.5z"
		/>
</g>
</svg>
